<?xml version="1.0" encoding="UTF-8" standalone="no"?>
<!-- Created with Inkscape (http://www.inkscape.org/) -->

<svg
   width="720"
   height="720"
   viewBox="0 0 720 720"
   version="1.1"
   id="svg1"
   inkscape:version="1.4.2 (ebf0e94, 2025-05-08)"
   sodipodi:docname="piyo_1-inkspace.svg"
   inkscape:export-filename="piyo_coin-bg-w.svg"
   inkscape:export-xdpi="136.53334"
   inkscape:export-ydpi="136.53334"
   xmlns:inkscape="http://www.inkscape.org/namespaces/inkscape"
   xmlns:sodipodi="http://sodipodi.sourceforge.net/DTD/sodipodi-0.dtd"
   xmlns="http://www.w3.org/2000/svg"
   xmlns:svg="http://www.w3.org/2000/svg">
  <sodipodi:namedview
     id="namedview1"
     pagecolor="#505050"
     bordercolor="#eeeeee"
     borderopacity="1"
     inkscape:showpageshadow="0"
     inkscape:pageopacity="0"
     inkscape:pagecheckerboard="0"
     inkscape:deskcolor="#505050"
     inkscape:document-units="px"
     inkscape:zoom="0.47729708"
     inkscape:cx="285.98541"
     inkscape:cy="291.22324"
     inkscape:window-width="1280"
     inkscape:window-height="730"
     inkscape:window-x="-6"
     inkscape:window-y="1073"
     inkscape:window-maximized="1"
     inkscape:current-layer="layer1"
     inkscape:export-bgcolor="#ffffffff">
    <inkscape:page
       x="0"
       y="0"
       width="720"
       height="720"
       id="page2"
       margin="0"
       bleed="0" />
  </sodipodi:namedview>
  <defs
     id="defs1" />
  <g
     inkscape:label="Layer 1"
     inkscape:groupmode="layer"
     id="layer1"
     style="display:inline">
    <g
       id="g2"
       transform="matrix(1.0279474,0,0,1.0487999,1.2542326,-74.035899)">
      <path
         style="display:inline;fill:#d83652;fill-opacity:1"
         d="m 269.22436,265.0341 56.56854,-10.47566 c 0,0 -35.61723,-148.75431 89.04308,-172.848323 C 539.49629,57.616108 591.87457,191.70451 573.01838,244.08279 662.06146,270.27193 839.10005,410.64572 413.78841,583.49404 -11.523222,756.34236 -38.759927,459.8813 57.616108,402.26519 -13.618353,356.1723 14.665918,216.84608 84.852814,184.37155 155.03971,151.89701 240.94009,168.65806 269.22436,265.0341 Z"
         id="path1" />
      <ellipse
         style="display:inline;fill:#000000;fill-opacity:1;stroke-width:0.824784"
         id="path2"
         cx="170.75319"
         cy="343.07776"
         rx="71.234467"
         ry="72.805809" />
      <ellipse
         style="display:inline;fill:#000000;fill-opacity:1;stroke-width:0.824784"
         id="path2-5"
         cx="465.6004"
         cy="252.19083"
         rx="71.234467"
         ry="72.805809" />
    </g>
    <g
       id="g3">
      <circle
         cx="609.20142"
         cy="618.75964"
         fill="#d68f30"
         id="circle1"
         style="stroke-width:1.56113"
         r="89.546692" />
      <path
         fill="#bc6f00"
         d="m 525.74315,642.02051 v 9.14824 c 0.93669,2.41977 1.98264,4.80831 3.12227,7.11878 v -16.26702 z m 10.20983,17.21931 v 10.9904 c 1.2489,1.76408 2.54465,3.49694 3.90283,5.16736 v -16.15776 z m 13.51943,14.36245 v 11.84901 c 1.51429,1.35819 3.07543,2.65393 4.6834,3.90284 v -15.75185 z m 16.6417,10.91234 v 12.73885 c 1.5299,0.84301 3.09104,1.6392 4.68339,2.40415 v -15.143 z m 18.87411,6.94704 v 13.48821 c 1.54553,0.43711 3.10666,0.8274 4.68341,1.18646 v -14.67467 z m 22.09006,2.40415 v 14.37805 c 0.70251,0.0125 1.40502,0.0437 2.12315,0.0437 0.85862,0 1.71725,-0.0437 2.56026,-0.0624 v -14.36243 z m 22.09006,-2.51343 v 14.67468 c 1.57675,-0.35907 3.13788,-0.76497 4.6834,-1.20208 v -13.4726 z m 18.82729,-7.04072 v 15.15862 c 1.59236,-0.76495 3.15349,-1.59235 4.68341,-2.45098 v -12.70764 z m 16.59486,-11.006 v 15.76746 a 87.423556,87.423556 0 0 0 4.68341,-3.93406 v -11.8334 z m 18.12478,-14.40927 h -3.90284 v 16.15774 c 1.35819,-1.68602 2.66954,-3.41888 3.90284,-5.19858 z m 10.14738,-17.28177 h -3.12227 v 16.29825 c 1.13963,-2.35731 2.18559,-4.77708 3.12227,-7.22805 z"
         id="path1-8"
         style="stroke-width:1.56113" />
      <circle
         cx="609.20142"
         cy="610.70428"
         fill="#fff176"
         id="circle2"
         style="stroke-width:1.56113"
         r="89.546692" />
      <circle
         cx="609.20142"
         cy="610.70428"
         fill="#f2bc1a"
         id="circle3"
         style="stroke-width:1.56113"
         r="81.569305" />
      <path
         fill="#e08f00"
         d="m 527.47601,613.82641 c -0.57761,-10.74061 1.28013,-21.63733 5.02685,-31.84715 3.90285,-10.1786 9.88199,-19.59224 17.42227,-27.58525 15.14301,-16.01725 37.12379,-25.306 59.2763,-25.41528 22.1525,0.12489 44.14889,9.39803 59.26068,25.43089 7.55589,7.9774 13.51942,17.40665 17.42227,27.56964 3.76233,10.22544 5.62008,21.10654 5.02685,31.84715 H 690.599 a 82.427925,82.427925 0 0 0 -6.24454,-31.2227 82.427925,82.427925 0 0 0 -17.62521,-26.49246 81.647361,81.647361 0 0 0 -26.38318,-17.76571 80.866787,80.866787 0 0 0 -62.32051,0 81.647361,81.647361 0 0 0 -26.38318,17.76571 82.271807,82.271807 0 0 0 -17.62521,26.49246 82.427925,82.427925 0 0 0 -6.24454,31.2227 z"
         id="path3"
         style="stroke-width:1.56113" />
      <path
         fill="#fff176"
         d="m 609.20143,521.17305 c -49.45676,0 -89.5467,40.08995 -89.5467,89.5467 0,49.45676 40.08994,89.5467 89.5467,89.5467 49.45675,0 89.5467,-40.08994 89.5467,-89.5467 0,-49.45675 -40.08995,-89.5467 -89.5467,-89.5467 m 0,171.116 c -45.05436,0 -81.5693,-36.51494 -81.5693,-81.5693 0,-45.06996 36.51494,-81.58491 81.5693,-81.58491 45.05435,0 81.5693,36.51495 81.5693,81.5693 0,45.05435 -36.51495,81.58491 -81.5693,81.58491"
         id="path4"
         style="stroke-width:1.56113" />
    </g>
    <path
       fill="#717f35"
       d="m 593.14894,649.03391 -8.47993,-19.53766 c 0,0 -0.98795,-10.75964 0.94282,-24.81398 1.68725,-12.26124 4.59862,-20.78512 11.46232,-28.11969 5.32657,-5.68702 13.59264,-11.28535 21.61703,-13.6618 8.02439,-2.37644 8.84597,-2.46327 8.7891,-1.51423 -0.0569,0.94904 -12.70869,5.77916 -21.95417,17.17924 -9.24549,11.4001 -9.52067,22.80323 -10.50927,30.21777 -0.9886,7.41453 -1.8679,40.25035 -1.8679,40.25035"
       id="path1-5"
       style="stroke-width:0.970143" />
    <path
       fill="#94a61d"
       d="m 564.7523,596.7845 c 4.61588,9.57755 8.48861,27.17719 13.37146,40.57079 4.54772,12.49883 9.50469,22.22316 14.1001,27.115 4.59541,4.89184 9.06476,4.75149 11.0888,3.24975 3.04179,-2.26686 1.92705,-9.12712 2.14273,-13.05033 0.38146,-7.01357 2.00802,-11.7755 4.3145,-15.23325 2.02858,-3.03704 5.66762,-6.02618 9.25293,-4.71309 4.30795,1.57993 6.97253,6.09366 8.20643,8.20856 1.23389,2.1149 3.02437,6.29439 3.96372,6.35068 0.93935,0.0563 0.027,-10.50444 -4.06945,-16.91167 -4.05204,-6.33654 -10.32371,-7.90781 -16.16651,-5.76994 -13.04711,4.77727 -14.41292,21.56731 -14.41292,21.56731 0,0 -7.6503,-7.27137 -12.13664,-25.33541 -1.09634,-4.41002 -4.43573,-20.04365 -8.29159,-26.57253 -5.92907,-10.04499 -12.7615,-12.47597 -16.60229,-14.06678 -3.84079,-1.59081 -8.50473,-3.23095 -8.68905,-2.42561 -0.18491,0.81502 8.73271,6.23801 13.92778,17.01652"
       id="path2-51"
       style="stroke-width:0.970143" />
    <path
       fill="#ffbd13"
       d="m 600.13906,654.67183 c -0.22602,-2.71537 -1.02429,-9.8288 -0.0102,-18.64132 0.69778,-6.12964 3.00477,-16.24476 12.52163,-19.03714 7.65679,-2.24297 13.5077,-1.92149 21.25753,2.39161 7.18563,3.99744 3.90627,-0.96132 0.53764,-2.9709 -2.33646,-1.39375 -12.30017,-7.20015 -22.68529,-4.3529 -12.07476,3.30969 -16.07908,17.25921 -16.07908,17.25921 0,0 0.0597,-15.42993 3.68083,-22.82277 3.62168,-7.40251 9.68791,-13.26874 8.15953,-13.87543 -0.56943,-0.2285 -7.93085,2.27514 -12.53418,11.30019 -4.9122,9.63826 -5.64155,18.56503 -5.66598,23.67567 -0.0244,5.11064 0.40184,10.16082 0.40184,10.16082 0,0 1.73396,4.79811 3.9249,7.97141 2.0294,2.94979 6.55774,9.77166 6.49086,8.94155"
       id="path3-7"
       style="fill:#faffff;fill-opacity:1;stroke-width:0.970143" />
    <path
       fill="#ffbd13"
       d="m 612.25264,578.87172 c -0.46872,-0.12527 -5.62049,1.50975 -8.52217,7.43928 -2.90169,5.92953 -1.04277,11.07529 -1.04277,11.07529 0,0 7.13227,-5.49134 8.62084,-9.08557 1.48914,-3.60391 1.57571,-9.2648 0.9441,-9.429"
       id="path4-1"
       style="fill:#f0f0e1;fill-opacity:1;stroke-width:0.970143" />
    <path
       fill="#ffbd13"
       d="m 623.90572,596.86959 c 0.0864,-0.30582 -4.85166,-4.99467 -8.84711,-5.30214 -3.98577,-0.30689 -9.07197,2.82876 -9.07197,2.82876 0,0 1.42655,4.08965 7.70845,5.16588 4.53043,0.78659 10.0505,-2.12868 10.21063,-2.6925 m -10.33786,-7.99612 c 0.42283,0.40437 5.58962,0.1406 8.77329,-3.19654 3.34964,-3.51186 3.90007,-11.88566 2.95103,-11.94253 -1.13303,-0.0679 -1.97004,1.08707 -4.00844,2.17976 -2.03783,1.08302 -5.86297,4.42059 -6.97509,7.08493 -1.12237,2.67345 -1.16362,5.47 -0.74079,5.87438 m 5.00941,0.90277 c 0.0392,1.12973 3.78738,5.07667 8.18202,5.53441 4.39464,0.45774 8.38744,-0.97461 8.42691,-1.63313 0.0395,-0.65851 -2.47351,-5.75599 -7.31557,-6.53211 -5.23737,-0.82897 -9.31102,2.11467 -9.29336,2.63083 m 6.775,-4.39508 c 0.46897,0.93195 6.59909,0.16222 9.6795,-3.56014 2.83911,-3.42583 2.58781,-7.50336 2.33831,-8.04313 -0.2495,-0.53976 -4.49728,-0.3667 -8.10063,3.32433 -2.98227,3.05764 -4.34178,7.41767 -3.91718,8.27894 m 6.30432,0.37781 c -0.0782,0.85057 2.24933,4.46939 5.06535,5.96964 4.23827,2.25607 9.85862,1.39747 10.14598,0.65664 0.27769,-0.74142 -2.02089,-6.01071 -5.43482,-7.75088 -4.01746,-2.04847 -9.64568,-0.24762 -9.77651,1.12462 m 6.45046,-3.5204 c -0.0685,1.14272 6.77038,1.35818 9.29063,-0.1527 2.52026,-1.51089 5.29597,-5.82492 5.90389,-6.40077 0.60792,-0.57586 0.7419,-1.18984 -0.47502,-1.6418 -1.20724,-0.45138 -7.26753,-1.00895 -10.92985,1.39566 -3.66232,2.40461 -3.77572,6.56719 -3.78965,6.79961 m 7.58834,1.98061 c -0.65094,0.32059 0.23524,1.58855 0.65056,2.60476 0.41474,1.02589 1.78087,5.1508 5.19113,7.11428 3.25997,1.87673 7.82754,2.04355 8.02604,1.81247 0.20761,-0.22081 -0.44239,-5.91612 -3.71675,-8.68784 -3.98637,-3.37808 -8.93006,-3.43138 -10.15098,-2.84367 m 5.29218,-1.86958 c 0.0831,0.55895 4.56643,3.26706 8.47784,3.84162 3.91142,0.57457 8.04061,-3.13354 8.11456,-3.55673 0.074,-0.4232 -3.29811,-4.48366 -7.3838,-4.58272 -5.36631,-0.13695 -9.30414,3.6215 -9.2086,4.29783 m -18.60002,19.91687 c -0.0235,-0.90526 -7.38436,-1.49217 -11.35571,2.1768 -3.98044,3.65871 -4.29898,7.35221 -4.29898,7.35221 l 2.59681,1.91474 c 0,0 5.30766,-1.96585 8.25859,-4.50056 3.44245,-2.95231 4.82144,-5.85335 4.79929,-6.94319"
       id="path5-1"
       style="fill:#ffffff;fill-opacity:1;stroke-width:0.970143" />
    <path
       fill="#ffbd13"
       d="m 624.17687,626.88787 c 1.18824,0.11982 1.24734,-4.92073 0.29208,-8.11716 -1.01145,-3.39417 -4.06558,-5.94859 -4.06558,-5.94859 l -4.03121,0.61366 c 0,0 -0.14905,3.94664 1.56352,7.48002 2.27646,4.6654 5.14979,5.85807 6.24119,5.97207 m 1.84085,-12.06737 c 0,0 -0.64022,4.03382 1.00305,7.91292 1.71087,4.04838 5.83547,6.57948 6.80714,6.25868 0.97167,-0.3208 0.78443,-5.14284 0.30103,-7.45574 -0.4834,-2.31289 -3.10784,-6.03698 -3.10784,-6.03698 z m -0.40397,-2.01657 c 0,0 3.32651,-4.74754 7.11693,-6.04623 5.40781,-1.85294 11.9672,1.24199 11.94616,2.24177 -0.0113,1.00036 -4.81266,4.08505 -7.14007,4.81056 -2.32682,0.71581 -7.02333,1.24101 -7.02333,1.24101 z m 18.95325,1.27191 c -4.03901,-0.0671 -8.1567,1.98947 -8.33015,3.26197 -0.17345,1.27249 3.20998,4.33259 8.18758,4.63089 4.9776,0.2983 8.25619,-2.83877 8.28462,-3.31329 0.0362,-0.47406 -2.57917,-4.47945 -8.14205,-4.57957"
       id="path6-5"
       style="fill:#ffffff;fill-opacity:1;stroke-width:0.970143" />
    <path
       fill="#ffbd13"
       d="m 637.32178,619.18137 c -1.04395,-0.25694 -2.48882,5.04071 -0.94294,9.40963 1.5453,4.37861 6.24996,6.7987 6.62862,6.96718 1.2117,0.53912 1.32659,-7.05413 0.0397,-10.23155 -1.17778,-2.88904 -4.23213,-5.7642 -5.72543,-6.14526 m 6.68866,4.18147 c -0.45994,0.70135 0.18749,5.62872 2.19636,8.59672 3.14182,4.65895 8.29337,5.29812 8.83024,5.09704 0.53687,-0.20108 0.32392,-7.02674 -2.79535,-10.44032 -3.00092,-3.28015 -7.81353,-3.899 -8.23125,-3.25344"
       id="path7-2"
       style="fill:#ffffff;fill-opacity:1;stroke-width:0.970143" />
  </g>
</svg>
